# xmcd
#
# Track frame offsets: 
#        150
#        33485
#        46246
#        86461
#        102012
#        118782
#        134711
#        151474
#        167402
#        193441
#        242296
#
# Disc length: 3359 seconds
#
# Revision: 2
# Processed by: cddbd v1.5.1PL0 Copyright (c) Steve Scherf et al.
# Submitted via: ExactAudioCopy v0.90b4
#
DISCID=8c0d1d0b
DTITLE=Various Artist - Blues Premium Series
DYEAR=2004
DGENRE=Blues
TTITLE0=Albert King and John Lee Hooker - Feel Good
TTITLE1=Muddy Waters - Hoochie Coochie Man
TTITLE2=Jimi Hendrix - Red House
TTITLE3=B. B. King - Out Of The Street Again
TTITLE4=Jelly Roll Morton - Dead Man Blues
TTITLE5=Albert King - Get Out Of My Life Woman
TTITLE6=Memphis Slim - Just Landed In Your Town
TTITLE7=Johnny Winter and Dr. John - Rock And Roll
TTITLE8=Howlin' Wolf - Sittin' On The Top Of The World
TTITLE9=Eric Bell - Whiskey In The Jar
TTITLE10=Koko Taylor - Love You Like A Woman
EXTD=YEAR: 2004
EXTT0=
EXTT1=
EXTT2=
EXTT3=
EXTT4=
EXTT5=
EXTT6=
EXTT7=
EXTT8=
EXTT9=
EXTT10=
PLAYORDER=
